HIERARCHY
ROOT Hips
{
  OFFSET 0 89.5177 0.535
  CHANNELS 6 Xposition Yposition Zposition Zrotation Xrotation Yrotation
  JOINT Spine
  {
    OFFSET 12.0259 -0.162855 1.69034e-005
    CHANNELS 3 Zrotation Xrotation Yrotation
    JOINT Spine1
    {
      OFFSET 15.3169 -0.0121922 0
      CHANNELS 3 Zrotation Xrotation Yrotation
      JOINT Spine2
      {
        OFFSET 15.3176 -0.0121908 0
        CHANNELS 3 Zrotation Xrotation Yrotation
        JOINT Neck
        {
          OFFSET 19.9142 1.56338 0
          CHANNELS 3 Zrotation Xrotation Yrotation
          JOINT Head
          {
            OFFSET 6.92651 0 0
            CHANNELS 3 Zrotation Xrotation Yrotation
            End Site
            {
              OFFSET 20.7666 0 0
            }
          }
          JOINT LeftShoulder
          {
            OFFSET -6.20654 0.708824 7.28219
            CHANNELS 3 Zrotation Xrotation Yrotation
            JOINT LeftArm
            {
              OFFSET 14.108 0 -1.52588e-005
              CHANNELS 3 Zrotation Xrotation Yrotation
              JOINT LeftForeArm
              {
                OFFSET 28.5802 0 0
                CHANNELS 3 Zrotation Xrotation Yrotation
                JOINT LeftHand
                {
                  OFFSET 27.092 0 0
                  CHANNELS 3 Zrotation Xrotation Yrotation
                  End Site
                  {
                    OFFSET 9.55928 -0.186424 0.145352
                  }
                }
              }
            }
          }
          JOINT RightShoulder
          {
            OFFSET -6.20654 0.708866 -7.28218
            CHANNELS 3 Zrotation Xrotation Yrotation
            JOINT RightArm
            {
              OFFSET 14.108 0 1.52588e-005
              CHANNELS 3 Zrotation Xrotation Yrotation
              JOINT RightForeArm
              {
                OFFSET 28.5802 0 0
                CHANNELS 3 Zrotation Xrotation Yrotation
                JOINT RightHand
                {
                  OFFSET 27.092 0 0
                  CHANNELS 3 Zrotation Xrotation Yrotation
                  End Site
                  {
                    OFFSET 9.55929 -0.186417 -0.145354
                  }
                }
              }
            }
          }
        }
      }
    }
  }
  JOINT LeftUpLeg
  {
    OFFSET 0.005 -0.535 8.837
    CHANNELS 3 Zrotation Xrotation Yrotation
    JOINT LeftLeg
    {
      OFFSET 39.9035 0 0
      CHANNELS 3 Zrotation Xrotation Yrotation
      JOINT LeftFoot
      {
        OFFSET 39.6689 0 0
        CHANNELS 3 Zrotation Xrotation Yrotation
        JOINT LeftToe
        {
          OFFSET 10.1624 13.6296 0
          CHANNELS 3 Zrotation Xrotation Yrotation
          End Site
          {
            OFFSET 8.38147 0 0
          }
        }
      }
    }
  }
  JOINT RightUpLeg
  {
    OFFSET 0.005 -0.535 -8.837
    CHANNELS 3 Zrotation Xrotation Yrotation
    JOINT RightLeg
    {
      OFFSET 39.9035 0 0
      CHANNELS 3 Zrotation Xrotation Yrotation
      JOINT RightFoot
      {
        OFFSET 39.6689 0 0
        CHANNELS 3 Zrotation Xrotation Yrotation
        JOINT RightToe
        {
          OFFSET 10.1624 13.6296 0
          CHANNELS 3 Zrotation Xrotation Yrotation
          End Site
          {
            OFFSET 8.38147 0 0
          }
        }
      }
    }
  }
}
MOTION
Frames:	14
Frame Time:	0.0333333
203.412 85.264 259.179 -110.962 -46.7844 165.061 1.77943 -1.08835 -0.908481 3.54236 -2.20379 -1.78306 3.54236 -2.20379 -1.78307 -8.30589e-012 -9.0191e-006 -5.27751e-005 -1.58999 6.95325 -4.33787 -174.358 -18.5644 -72.7596 -39.0303 -3.46055 52.5272 -30.4672 3.18055e-015 1.59028e-015 -28.5319 -61.5127 -32.7562 -176.555 11.6641 73.4168 -23.2452 -5.58743 -60.0114 -25.0342 3.18055e-015 1.59028e-015 -67.7942 70.606 71.0617 -18.0477 8.55597 -174.561 -8.50461 -6.36111e-015 -3.47873e-015 -13.2527 -17.6093 154.767 90 1.19271e-015 -0 -41.3798 -12.1796 162.473 -38.965 0 1.59028e-015 32.153 -18.7382 21.4923 90 -1.59028e-015 -3.18055e-015 
202.18 85.6438 259.251 -109.781 -45.9925 165.827 1.85204 -1.01661 -0.873741 3.68926 -2.06034 -1.71443 3.68926 -2.06034 -1.71444 -8.30271e-012 -9.0191e-006 -5.27751e-005 -1.13122 7.18209 -4.40752 -174.36 -18.473 -72.6898 -38.2116 -3.06873 52.0231 -29.3639 3.18055e-015 -4.77083e-015 -27.8487 -61.4671 -32.0259 -176.59 11.567 73.449 -23.1959 -5.05359 -59.9259 -26.1838 -6.36111e-015 2.38542e-015 -68.3342 70.7604 71.6296 -17.8098 8.80411 -174.917 -8.4294 -6.36111e-015 2.98177e-016 -13.6913 -18.1168 154.031 90 1.59028e-015 1.59028e-015 -40.41 -15.8931 163.594 -41.1295 3.18056e-015 1.59028e-015 31.4327 -18.439 22.5558 90 -1.59028e-015 -9.54166e-015 
201.133 85.8945 259.336 -108.622 -44.8985 166.926 1.87322 -0.862454 -0.91412 3.7331 -1.75375 -1.79972 3.7331 -1.75375 -1.79973 -8.30748e-012 -9.0191e-006 -5.27751e-005 -0.788819 7.32187 -4.38606 -174.329 -18.6112 -72.7161 -37.4372 -2.8483 51.9106 -27.9528 0 -0 -27.0116 -61.1211 -31.1117 -176.623 11.4707 73.4747 -23.6279 -4.80091 -59.8517 -26.8502 3.18055e-015 -7.95139e-016 -68.6837 70.8304 71.9986 -17.4654 9.17239 -175.44 -8.33994 0 -5.96354e-016 -14.0756 -18.7875 152.999 90 -1.19271e-015 1.59028e-015 -37.9098 -16.5229 165.568 -42.6712 3.18056e-015 4.77083e-015 31.617 -18.5435 25.4199 90 -1.59028e-015 -0 
200.133 85.9784 259.503 -107.832 -44.0807 168.048 1.86885 -0.749746 -0.973579 3.7252 -1.53026 -1.9223 3.7252 -1.53026 -1.9223 -8.31066e-012 -9.0191e-006 -5.27751e-005 -0.496437 7.23519 -4.62002 -174.283 -18.6913 -72.6507 -36.4647 -2.5606 52.0492 -26.8198 0 -0 -26.3568 -60.6248 -30.38 -176.69 11.3357 73.605 -24.5822 -4.79041 -59.7463 -27.308 -3.18055e-015 -5.1684e-015 -68.6559 70.9927 71.9596 -17.3063 9.2491 -176.281 -8.28321 6.36111e-015 1.78906e-015 -14.4451 -19.5035 151.863 90 3.57812e-015 -1.59028e-015 -35.0511 -15.8716 167.457 -43.8184 -6.36111e-015 -1.59028e-015 32.6511 -18.8106 29.1875 90 6.36111e-015 -9.54166e-015 
199.206 85.9335 259.747 -107.253 -43.6576 169.038 1.85961 -0.677503 -1.00182 3.7075 -1.38658 -1.9812 3.7075 -1.38658 -1.98121 -8.30748e-012 -9.0191e-006 -5.27751e-005 -0.338332 7.26626 -5.07283 -174.195 -18.7454 -72.4437 -35.5344 -1.99253 52.2752 -26.1739 3.18055e-015 3.18055e-015 -26.395 -60.6138 -30.4196 -176.743 11.2289 73.7111 -25.5016 -4.69362 -59.6062 -27.3595 -3.18055e-015 3.97569e-016 -68.6793 71.0392 71.9818 -17.3448 9.40493 -177.107 -8.30709 3.18055e-015 3.97569e-016 -14.8125 -19.857 151.332 90 3.97569e-016 3.18055e-015 -32.4499 -14.8531 169.158 -45.3829 3.18056e-015 -1.59028e-015 33.9499 -19.3554 31.7676 90 -3.18055e-015 -0 
198.336 85.7315 260.116 -107.111 -43.6599 169.629 1.8126 -0.653015 -0.972792 3.61423 -1.33591 -1.92449 3.61423 -1.33591 -1.9245 -8.30748e-012 -9.0191e-006 -5.27751e-005 -0.0385688 7.47856 -5.7272 -174.098 -18.8126 -72.2252 -34.3339 -1.6497 52.8492 -25.8081 0 1.59028e-015 -26.3827 -60.3009 -30.3816 -176.752 11.2262 73.7476 -26.4879 -4.62297 -59.2959 -27.2228 0 1.98785e-016 -68.25 71.2513 71.5126 -17.7904 9.49885 -177.816 -8.42272 0 -3.47873e-016 -15.2669 -19.8942 151.349 90 1.59028e-015 -1.59028e-015 -30.3462 -13.6919 170.716 -46.9963 3.18056e-015 -0 34.4415 -20.4491 33.8228 90 -3.18055e-015 -3.18055e-015 
197.587 85.388 260.562 -106.832 -44.1197 170.239 1.8378 -0.637193 -0.902072 3.6657 -1.30243 -1.78327 3.6657 -1.30244 -1.78328 -8.30748e-012 -9.0191e-006 -5.27751e-005 0.32754 7.6711 -6.36603 -173.959 -18.9243 -71.9268 -33.611 -1.13064 53.423 -25.9708 3.18055e-015 1.59028e-015 -26.6449 -60.3323 -30.6615 -176.769 11.1598 73.7384 -26.9169 -4.46835 -58.9793 -27.2246 -3.18055e-015 -2.48481e-017 -68.2989 71.3018 71.5617 -18.0947 9.21412 -178.489 -8.52238 3.18055e-015 -4.22417e-016 -15.7979 -19.9133 151.397 90 6.36111e-015 1.59028e-015 -27.7806 -12.7875 172.16 -47.0638 -6.36111e-015 -3.18056e-015 35.8566 -21.4787 35.8908 90 0 -9.54166e-015 
196.8 85.0653 261.049 -106.778 -44.8585 170.879 1.91714 -0.586727 -0.845259 3.82574 -1.20086 -1.67041 3.82574 -1.20086 -1.67042 -8.31066e-012 -9.0191e-006 -5.27751e-005 0.194696 7.55757 -6.88155 -173.762 -19.0002 -71.4415 -33.0586 -0.919851 53.9346 -26.6303 0 -1.59028e-015 -27.4673 -60.4964 -31.5457 -176.769 11.066 73.611 -26.8245 -4.21716 -58.4527 -27.3444 3.18055e-015 -6.70898e-016 -68.2446 71.3482 71.5012 -18.5137 8.31765 -179.502 -8.5458 -3.18055e-015 5.34234e-016 -16.6052 -20.2494 150.876 90 3.57812e-015 1.59028e-015 -26.2983 -13.6796 172.373 -45.8715 -3.18056e-015 -4.77083e-015 38.7607 -20.7699 32.4285 90 1.11319e-014 -0 
195.936 84.8955 261.671 -106.978 -45.319 170.98 2.04281 -0.38605 -0.681537 4.08104 -0.795644 -1.34878 4.08104 -0.795645 -1.34879 -8.3043e-012 -9.0191e-006 -5.27751e-005 -0.463 7.12596 -7.3841 -173.447 -19.1287 -70.6805 -32.497 -1.58734 54.6141 -27.1743 6.36111e-015 -1.59028e-015 -28.1725 -60.6356 -32.3055 -176.79 10.9197 73.5087 -26.2963 -3.67849 -57.8048 -27.1958 3.18055e-015 2.48481e-016 -68.2577 71.3094 71.512 -19.2988 7.47097 179.921 -8.53945 0 5.96354e-016 -17.597 -20.5862 150.322 90 -1.59028e-015 -1.59028e-015 -27.4177 -15.4976 171.835 -47.1978 0 -1.59028e-015 42.7806 -22.2049 27.0376 90 3.18055e-015 -3.18055e-015 
194.949 84.8726 262.528 -107.756 -44.9556 170.564 2.12994 -0.0380983 -0.480523 4.25949 -0.0935498 -0.959154 4.25949 -0.0935501 -0.959163 -8.31066e-012 -9.0191e-006 -5.27751e-005 -1.31597 6.88512 -8.07316 -173.047 -19.4416 -69.8782 -32.0288 -2.50069 55.5182 -27.9419 3.18055e-015 -0 -29.5095 -60.7342 -33.7355 -176.895 10.6132 73.5908 -26.1016 -3.09824 -57.1199 -26.6539 0 4.96962e-016 -68.0137 71.2901 71.2591 -20.768 7.61463 179.784 -8.54149 -3.18055e-015 -4.96962e-016 -18.5801 -20.7155 150.116 90 -3.57812e-015 -7.95139e-016 -29.5352 -16.5882 171.165 -48.1167 3.18056e-015 3.18056e-015 44.0903 -23.4609 26.4313 90 -6.36111e-015 3.18055e-015 
193.952 84.9981 263.39 -108.399 -44.9392 170.393 2.26119 0.168463 -0.294983 4.52324 0.325632 -0.596244 4.52324 0.325632 -0.596253 -8.31225e-012 -9.0191e-006 -5.27751e-005 -1.98364 6.85804 -8.8319 -172.731 -19.8805 -69.4399 -31.141 -3.34096 57.0816 -28.9489 -1.59028e-014 -3.18055e-015 -31.3061 -60.8434 -35.6627 -177.055 10.2354 73.8516 -26.8231 -2.73566 -56.4152 -25.8141 0 -7.95139e-016 -67.6235 71.2528 70.8462 -22.0647 7.78972 179.428 -8.54081 -1.27222e-014 -1.98785e-016 -19.4288 -20.6377 150.261 90 -4.37326e-015 5.56597e-015 -31.579 -17.7704 170.112 -48.6565 3.18056e-015 -0 44.2871 -24.4001 26.9904 90 3.18055e-015 -3.18055e-015 
193.049 85.1707 264.21 -109.303 -45.6281 170.171 2.35592 0.214636 -0.159845 4.71247 0.422998 -0.32824 4.71247 0.422998 -0.32825 -8.30907e-012 -9.0191e-006 -5.27751e-005 -2.31079 7.08049 -9.52235 -172.736 -20.0129 -69.571 -30.2675 -3.3884 58.89 -30.2121 0 -1.59028e-015 -32.896 -61.0478 -37.3836 -177.087 10.1181 73.8456 -27.8902 -2.67734 -55.5414 -25.4904 0 8.94531e-016 -67.0274 71.4887 70.2 -23.278 7.84622 178.758 -8.45386 -1.59028e-014 -5.96354e-016 -20.056 -20.226 150.98 90 -1.59028e-015 -3.18055e-015 -33.0538 -18.415 169.391 -48.6556 -3.18056e-015 -0 44.4197 -24.6125 25.2627 90 1.59028e-015 -6.36111e-015 
192.218 85.3278 264.939 -110.4 -47.1015 169.595 2.40281 0.135215 0.0143602 4.80561 0.271393 0.0231792 4.80561 0.271392 0.0231699 -8.31066e-012 -9.0191e-006 -5.27751e-005 -2.1706 6.9755 -10.0491 -172.809 -19.8878 -69.6513 -30.0484 -2.84107 60.1786 -31.3201 -3.18055e-015 -1.59028e-015 -33.5091 -61.4338 -38.0723 -177.062 10.1546 73.7726 -28.1163 -2.57218 -54.7659 -25.6835 3.18055e-015 4.96962e-016 -67.0242 71.5161 70.1951 -24.327 7.80885 178.002 -8.22688 3.18055e-015 1.19271e-015 -20.0117 -19.437 152.325 90 -1.59028e-015 -4.77083e-015 -33.9155 -18.5056 169.177 -48.2339 -3.18056e-015 -1.59028e-015 43.8521 -23.8299 22.0268 90 7.95139e-015 -0 
191.496 85.4681 265.475 -111.211 -48.8034 169.269 2.43131 -0.00831392 0.160983 4.86264 -0.00931215 0.322314 4.86264 -0.00931252 0.322305 -8.30271e-012 -9.0191e-006 -5.27751e-005 -1.72817 6.84395 -10.4793 -172.728 -19.8716 -69.4229 -30.2988 -2.34063 60.9023 -31.7497 -6.36111e-015 1.59028e-015 -33.9677 -61.5137 -38.5717 -177.062 10.2139 73.8606 -27.7749 -2.21141 -54.3381 -25.6312 -6.36111e-015 -1.19271e-015 -67.0544 71.5398 70.226 -24.767 8.74796 177.118 -7.9201 3.18055e-015 3.97569e-016 -18.7293 -19.151 152.775 90 -2.78299e-015 1.59028e-015 -34.7079 -19.0322 168.295 -48.0453 3.18056e-015 3.18056e-015 43.412 -23.3793 20.3524 90 0 -9.54166e-015 
